<mxfile host="app.diagrams.net" modified="2024-04-22T19:58:55.534Z" agent="Mozilla/5.0 (Windows NT 10.0; Win64; x64) AppleWebKit/537.36 (KHTML, like Gecko) Chrome/124.0.0.0 Safari/537.36 Edg/124.0.0.0" etag="b7J99WO910nvJRbynjGI" version="24.2.8" type="github">
  <diagram name="Page-1" id="8gi0LiIUYh2WG3iCJh61">
    <mxGraphModel dx="786" dy="467" grid="1" gridSize="10" guides="1" tooltips="1" connect="1" arrows="1" fold="1" page="1" pageScale="1" pageWidth="850" pageHeight="1100" math="0" shadow="0">
      <root>
        <mxCell id="0" />
        <mxCell id="1" parent="0" />
        <mxCell id="k0v4qN_FJC5cJVmFZ7LJ-2" value="User" style="swimlane;fontStyle=0;align=center;verticalAlign=top;childLayout=stackLayout;horizontal=1;startSize=55;horizontalStack=0;resizeParent=1;resizeParentMax=0;resizeLast=0;collapsible=0;marginBottom=0;html=1;whiteSpace=wrap;" vertex="1" parent="1">
          <mxGeometry x="60" y="90" width="170" height="258" as="geometry" />
        </mxCell>
        <mxCell id="k0v4qN_FJC5cJVmFZ7LJ-3" value="attributes" style="text;html=1;strokeColor=none;fillColor=none;align=center;verticalAlign=middle;spacingLeft=4;spacingRight=4;overflow=hidden;rotatable=0;points=[[0,0.5],[1,0.5]];portConstraint=eastwest;whiteSpace=wrap;" vertex="1" parent="k0v4qN_FJC5cJVmFZ7LJ-2">
          <mxGeometry y="55" width="170" height="20" as="geometry" />
        </mxCell>
        <mxCell id="k0v4qN_FJC5cJVmFZ7LJ-4" value="&lt;div&gt;user ID (prim. key)&lt;/div&gt;username&lt;div&gt;password&lt;/div&gt;&lt;div&gt;name&lt;/div&gt;&lt;div&gt;email&lt;/div&gt;&lt;div&gt;Balance&lt;/div&gt;" style="text;html=1;strokeColor=none;fillColor=none;align=left;verticalAlign=middle;spacingLeft=4;spacingRight=4;overflow=hidden;rotatable=0;points=[[0,0.5],[1,0.5]];portConstraint=eastwest;whiteSpace=wrap;" vertex="1" parent="k0v4qN_FJC5cJVmFZ7LJ-2">
          <mxGeometry y="75" width="170" height="95" as="geometry" />
        </mxCell>
        <mxCell id="k0v4qN_FJC5cJVmFZ7LJ-5" value="inherited attribute2" style="text;html=1;strokeColor=none;fillColor=none;align=left;verticalAlign=middle;spacingLeft=4;spacingRight=4;overflow=hidden;rotatable=0;points=[[0,0.5],[1,0.5]];portConstraint=eastwest;fontColor=#808080;whiteSpace=wrap;" vertex="1" parent="k0v4qN_FJC5cJVmFZ7LJ-2">
          <mxGeometry y="170" width="170" height="20" as="geometry" />
        </mxCell>
        <mxCell id="k0v4qN_FJC5cJVmFZ7LJ-7" value="" style="line;strokeWidth=1;fillColor=none;align=left;verticalAlign=middle;spacingTop=-1;spacingLeft=3;spacingRight=3;rotatable=0;labelPosition=right;points=[];portConstraint=eastwest;" vertex="1" parent="k0v4qN_FJC5cJVmFZ7LJ-2">
          <mxGeometry y="190" width="170" height="8" as="geometry" />
        </mxCell>
        <mxCell id="k0v4qN_FJC5cJVmFZ7LJ-8" value="operations" style="text;html=1;strokeColor=none;fillColor=none;align=center;verticalAlign=middle;spacingLeft=4;spacingRight=4;overflow=hidden;rotatable=0;points=[[0,0.5],[1,0.5]];portConstraint=eastwest;whiteSpace=wrap;" vertex="1" parent="k0v4qN_FJC5cJVmFZ7LJ-2">
          <mxGeometry y="198" width="170" height="20" as="geometry" />
        </mxCell>
        <mxCell id="k0v4qN_FJC5cJVmFZ7LJ-6" value="..." style="text;html=1;strokeColor=none;fillColor=none;align=left;verticalAlign=middle;spacingLeft=4;spacingRight=4;overflow=hidden;rotatable=0;points=[[0,0.5],[1,0.5]];portConstraint=eastwest;whiteSpace=wrap;" vertex="1" parent="k0v4qN_FJC5cJVmFZ7LJ-2">
          <mxGeometry y="218" width="170" height="20" as="geometry" />
        </mxCell>
        <mxCell id="k0v4qN_FJC5cJVmFZ7LJ-9" value="operation1" style="text;html=1;strokeColor=none;fillColor=none;align=left;verticalAlign=middle;spacingLeft=4;spacingRight=4;overflow=hidden;rotatable=0;points=[[0,0.5],[1,0.5]];portConstraint=eastwest;whiteSpace=wrap;" vertex="1" parent="k0v4qN_FJC5cJVmFZ7LJ-2">
          <mxGeometry y="238" width="170" height="20" as="geometry" />
        </mxCell>
        <mxCell id="k0v4qN_FJC5cJVmFZ7LJ-10" value="Admin" style="swimlane;fontStyle=0;align=center;verticalAlign=top;childLayout=stackLayout;horizontal=1;startSize=55;horizontalStack=0;resizeParent=1;resizeParentMax=0;resizeLast=0;collapsible=0;marginBottom=0;html=1;whiteSpace=wrap;" vertex="1" parent="1">
          <mxGeometry x="640" y="90" width="200" height="268" as="geometry" />
        </mxCell>
        <mxCell id="k0v4qN_FJC5cJVmFZ7LJ-11" value="attributes" style="text;html=1;strokeColor=none;fillColor=none;align=center;verticalAlign=middle;spacingLeft=4;spacingRight=4;overflow=hidden;rotatable=0;points=[[0,0.5],[1,0.5]];portConstraint=eastwest;whiteSpace=wrap;" vertex="1" parent="k0v4qN_FJC5cJVmFZ7LJ-10">
          <mxGeometry y="55" width="200" height="20" as="geometry" />
        </mxCell>
        <mxCell id="k0v4qN_FJC5cJVmFZ7LJ-12" value="&lt;div&gt;Admin ID (prim. key)&lt;/div&gt;username&lt;div&gt;password&lt;/div&gt;&lt;div&gt;name&lt;/div&gt;&lt;div&gt;email&lt;/div&gt;&lt;div&gt;isAdmin (bool)&lt;/div&gt;" style="text;html=1;strokeColor=none;fillColor=none;align=left;verticalAlign=middle;spacingLeft=4;spacingRight=4;overflow=hidden;rotatable=0;points=[[0,0.5],[1,0.5]];portConstraint=eastwest;whiteSpace=wrap;" vertex="1" parent="k0v4qN_FJC5cJVmFZ7LJ-10">
          <mxGeometry y="75" width="200" height="105" as="geometry" />
        </mxCell>
        <mxCell id="k0v4qN_FJC5cJVmFZ7LJ-13" value="inherited attribute2" style="text;html=1;strokeColor=none;fillColor=none;align=left;verticalAlign=middle;spacingLeft=4;spacingRight=4;overflow=hidden;rotatable=0;points=[[0,0.5],[1,0.5]];portConstraint=eastwest;fontColor=#808080;whiteSpace=wrap;" vertex="1" parent="k0v4qN_FJC5cJVmFZ7LJ-10">
          <mxGeometry y="180" width="200" height="20" as="geometry" />
        </mxCell>
        <mxCell id="k0v4qN_FJC5cJVmFZ7LJ-14" value="..." style="text;html=1;strokeColor=none;fillColor=none;align=left;verticalAlign=middle;spacingLeft=4;spacingRight=4;overflow=hidden;rotatable=0;points=[[0,0.5],[1,0.5]];portConstraint=eastwest;whiteSpace=wrap;" vertex="1" parent="k0v4qN_FJC5cJVmFZ7LJ-10">
          <mxGeometry y="200" width="200" height="20" as="geometry" />
        </mxCell>
        <mxCell id="k0v4qN_FJC5cJVmFZ7LJ-15" value="" style="line;strokeWidth=1;fillColor=none;align=left;verticalAlign=middle;spacingTop=-1;spacingLeft=3;spacingRight=3;rotatable=0;labelPosition=right;points=[];portConstraint=eastwest;" vertex="1" parent="k0v4qN_FJC5cJVmFZ7LJ-10">
          <mxGeometry y="220" width="200" height="8" as="geometry" />
        </mxCell>
        <mxCell id="k0v4qN_FJC5cJVmFZ7LJ-16" value="operations" style="text;html=1;strokeColor=none;fillColor=none;align=center;verticalAlign=middle;spacingLeft=4;spacingRight=4;overflow=hidden;rotatable=0;points=[[0,0.5],[1,0.5]];portConstraint=eastwest;whiteSpace=wrap;" vertex="1" parent="k0v4qN_FJC5cJVmFZ7LJ-10">
          <mxGeometry y="228" width="200" height="20" as="geometry" />
        </mxCell>
        <mxCell id="k0v4qN_FJC5cJVmFZ7LJ-17" value="operation1" style="text;html=1;strokeColor=none;fillColor=none;align=left;verticalAlign=middle;spacingLeft=4;spacingRight=4;overflow=hidden;rotatable=0;points=[[0,0.5],[1,0.5]];portConstraint=eastwest;whiteSpace=wrap;" vertex="1" parent="k0v4qN_FJC5cJVmFZ7LJ-10">
          <mxGeometry y="248" width="200" height="20" as="geometry" />
        </mxCell>
        <mxCell id="k0v4qN_FJC5cJVmFZ7LJ-18" value="transactions" style="swimlane;fontStyle=0;align=center;verticalAlign=top;childLayout=stackLayout;horizontal=1;startSize=55;horizontalStack=0;resizeParent=1;resizeParentMax=0;resizeLast=0;collapsible=0;marginBottom=0;html=1;whiteSpace=wrap;" vertex="1" parent="1">
          <mxGeometry x="330" y="180" width="190" height="278" as="geometry" />
        </mxCell>
        <mxCell id="k0v4qN_FJC5cJVmFZ7LJ-19" value="attributes" style="text;html=1;strokeColor=none;fillColor=none;align=center;verticalAlign=middle;spacingLeft=4;spacingRight=4;overflow=hidden;rotatable=0;points=[[0,0.5],[1,0.5]];portConstraint=eastwest;whiteSpace=wrap;" vertex="1" parent="k0v4qN_FJC5cJVmFZ7LJ-18">
          <mxGeometry y="55" width="190" height="20" as="geometry" />
        </mxCell>
        <mxCell id="k0v4qN_FJC5cJVmFZ7LJ-20" value="&lt;div&gt;transaction ID (prim. key)&lt;/div&gt;Username [FK]&lt;div&gt;amount deposited/withdrawn&lt;/div&gt;&lt;div&gt;date and time&lt;/div&gt;&lt;div&gt;current balance&lt;/div&gt;" style="text;html=1;strokeColor=none;fillColor=none;align=left;verticalAlign=middle;spacingLeft=4;spacingRight=4;overflow=hidden;rotatable=0;points=[[0,0.5],[1,0.5]];portConstraint=eastwest;whiteSpace=wrap;" vertex="1" parent="k0v4qN_FJC5cJVmFZ7LJ-18">
          <mxGeometry y="75" width="190" height="115" as="geometry" />
        </mxCell>
        <mxCell id="k0v4qN_FJC5cJVmFZ7LJ-21" value="inherited attribute2" style="text;html=1;strokeColor=none;fillColor=none;align=left;verticalAlign=middle;spacingLeft=4;spacingRight=4;overflow=hidden;rotatable=0;points=[[0,0.5],[1,0.5]];portConstraint=eastwest;fontColor=#808080;whiteSpace=wrap;" vertex="1" parent="k0v4qN_FJC5cJVmFZ7LJ-18">
          <mxGeometry y="190" width="190" height="20" as="geometry" />
        </mxCell>
        <mxCell id="k0v4qN_FJC5cJVmFZ7LJ-22" value="..." style="text;html=1;strokeColor=none;fillColor=none;align=left;verticalAlign=middle;spacingLeft=4;spacingRight=4;overflow=hidden;rotatable=0;points=[[0,0.5],[1,0.5]];portConstraint=eastwest;whiteSpace=wrap;" vertex="1" parent="k0v4qN_FJC5cJVmFZ7LJ-18">
          <mxGeometry y="210" width="190" height="20" as="geometry" />
        </mxCell>
        <mxCell id="k0v4qN_FJC5cJVmFZ7LJ-23" value="" style="line;strokeWidth=1;fillColor=none;align=left;verticalAlign=middle;spacingTop=-1;spacingLeft=3;spacingRight=3;rotatable=0;labelPosition=right;points=[];portConstraint=eastwest;" vertex="1" parent="k0v4qN_FJC5cJVmFZ7LJ-18">
          <mxGeometry y="230" width="190" height="8" as="geometry" />
        </mxCell>
        <mxCell id="k0v4qN_FJC5cJVmFZ7LJ-24" value="operations" style="text;html=1;strokeColor=none;fillColor=none;align=center;verticalAlign=middle;spacingLeft=4;spacingRight=4;overflow=hidden;rotatable=0;points=[[0,0.5],[1,0.5]];portConstraint=eastwest;whiteSpace=wrap;" vertex="1" parent="k0v4qN_FJC5cJVmFZ7LJ-18">
          <mxGeometry y="238" width="190" height="20" as="geometry" />
        </mxCell>
        <mxCell id="k0v4qN_FJC5cJVmFZ7LJ-25" value="operation1" style="text;html=1;strokeColor=none;fillColor=none;align=left;verticalAlign=middle;spacingLeft=4;spacingRight=4;overflow=hidden;rotatable=0;points=[[0,0.5],[1,0.5]];portConstraint=eastwest;whiteSpace=wrap;" vertex="1" parent="k0v4qN_FJC5cJVmFZ7LJ-18">
          <mxGeometry y="258" width="190" height="20" as="geometry" />
        </mxCell>
        <mxCell id="k0v4qN_FJC5cJVmFZ7LJ-34" value="" style="endArrow=classic;html=1;rounded=0;" edge="1" parent="1">
          <mxGeometry width="50" height="50" relative="1" as="geometry">
            <mxPoint x="240" y="210" as="sourcePoint" />
            <mxPoint x="320" y="250" as="targetPoint" />
          </mxGeometry>
        </mxCell>
        <mxCell id="k0v4qN_FJC5cJVmFZ7LJ-35" value="one-to-many" style="text;html=1;align=center;verticalAlign=middle;resizable=0;points=[];autosize=1;strokeColor=none;fillColor=none;" vertex="1" parent="1">
          <mxGeometry x="230" y="170" width="90" height="30" as="geometry" />
        </mxCell>
      </root>
    </mxGraphModel>
  </diagram>
</mxfile>
